<svg id="Layer_1" data-name="Layer 1" xmlns="http://www.w3.org/2000/svg" viewBox="0 0 16 16" width="64" height="64"><title>22_Package</title><path d="M16,16H0V0H16Z" fill="#fff" opacity="0" /><path d="M9.5,0,8,2.5,6.4994,0h-1l-3.5,2.5V16H14V2.5L10.5,0Z" fill="#f6f6f6" /><path d="M12,9H9V6h3Zm0,5H9V11h3ZM7,9H4V6H7Zm0,5H4V11H7ZM12.2,3.05,9.85,1,8,4.5,6.171,1.049,3.879,3.125,5.781,4.219,6.899,5H3V15H13V5H9.167l1.146-.75Z" fill="#424242" /><path d="M7,14H4V11H7Z" fill="#f0eff1" /><path d="M7,9H4V6H7Z" fill="#f0eff1" /><path d="M12,14H9V11h3Z" fill="#f0eff1" /><path d="M12,9H9V6h3Z" fill="#f0eff1" /></svg>